{
	"asset":{
		"generator":"Khronos glTF Blender I/O v3.5.30",
		"version":"2.0"
	},
	"extensionsUsed":[
		"KHR_materials_ior",
		"KHR_materials_specular"
	],
	"scene":0,
	"scenes":[
		{
			"name":"Scene",
			"nodes":[
				0,
				1,
				2,
				3,
				4,
				5,
				6
			]
		}
	],
	"nodes":[
		{
			"mesh":0,
			"name":"ducky",
			"scale":[
				1,
				0.2627900540828705,
				1
			],
			"translation":[
				0,
				0.1511264145374298,
				0
			]
		},
		{
			"mesh":1,
			"name":"reeds"
		},
		{
			"mesh":2,
			"name":"groundplane",
			"scale":[
				160,
				8,
				160
			],
			"translation":[
				0,
				-8.00493335723877,
				0
			]
		},
		{
			"mesh":3,
			"name":"cornstalk",
			"rotation":[
				-0.18523386120796204,
				-0.7958952784538269,
				0.029125653207302094,
				0.5756655931472778
			],
			"scale":[
				0.06072113662958145,
				0.06072112172842026,
				0.06072112172842026
			],
			"translation":[
				0.025153830647468567,
				2.493030071258545,
				-0.028917748481035233
			]
		},
		{
			"mesh":4,
			"name":"surface",
			"scale":[
				2.9146571159362793,
				0.008105603978037834,
				2.9146568775177
			]
		},
		{
			"mesh":5,
			"name":"GridGround"
		},
		{
			"mesh":6,
			"name":"GridGround2"
		}
	],
	"materials":[
		{
			"doubleSided":true,
			"extensions":{
				"KHR_materials_specular":{
					"specularColorFactor":[
						0,
						0,
						0
					]
				},
				"KHR_materials_ior":{
					"ior":1.4500000476837158
				}
			},
			"name":"matte",
			"pbrMetallicRoughness":{
				"baseColorTexture":{
					"index":0
				},
				"metallicFactor":0,
				"roughnessFactor":0.5
			}
		},
		{
			"doubleSided":true,
			"extensions":{
				"KHR_materials_specular":{
					"specularColorFactor":[
						0,
						0,
						0
					]
				},
				"KHR_materials_ior":{
					"ior":1.4500000476837158
				}
			},
			"name":"palette",
			"pbrMetallicRoughness":{
				"baseColorTexture":{
					"index":1
				},
				"metallicFactor":0.06735754013061523,
				"roughnessFactor":0.30051812529563904
			}
		},
		{
			"doubleSided":true,
			"extensions":{
				"KHR_materials_specular":{
					"specularColorFactor":[
						0,
						0,
						0
					]
				},
				"KHR_materials_ior":{
					"ior":1.4500000476837158
				}
			},
			"name":"soil",
			"pbrMetallicRoughness":{
				"baseColorFactor":[
					0.18446944653987885,
					0.05302741006016731,
					0.007473601493984461,
					1
				],
				"metallicFactor":0,
				"roughnessFactor":0.5
			}
		},
		{
			"doubleSided":true,
			"name":"Platform",
			"pbrMetallicRoughness":{
				"baseColorFactor":[
					0.14483892917633057,
					0.8000000715255737,
					0.5668501257896423,
					1
				],
				"metallicFactor":0,
				"roughnessFactor":0.5
			}
		}
	],
	"meshes":[
		{
			"name":"Cube.003",
			"primitives":[
				{
					"attributes":{
						"POSITION":0,
						"TEXCOORD_0":1,
						"NORMAL":2
					},
					"indices":3,
					"material":0
				}
			]
		},
		{
			"name":"reedMesh",
			"primitives":[
				{
					"attributes":{
						"POSITION":4,
						"TEXCOORD_0":5,
						"NORMAL":6
					},
					"indices":7,
					"material":1
				}
			]
		},
		{
			"name":"Cube.001",
			"primitives":[
				{
					"attributes":{
						"POSITION":8,
						"TEXCOORD_0":9,
						"NORMAL":10
					},
					"indices":11,
					"material":2
				}
			]
		},
		{
			"name":"Sphere",
			"primitives":[
				{
					"attributes":{
						"POSITION":12,
						"TEXCOORD_0":13,
						"NORMAL":14
					},
					"indices":15,
					"material":1
				}
			]
		},
		{
			"name":"Cube.004",
			"primitives":[
				{
					"attributes":{
						"POSITION":16,
						"TEXCOORD_0":17,
						"NORMAL":18
					},
					"indices":19,
					"material":3
				}
			]
		},
		{
			"name":"Grid.002",
			"primitives":[
				{
					"attributes":{
						"POSITION":20,
						"TEXCOORD_0":21,
						"NORMAL":22
					},
					"indices":23,
					"material":2
				}
			]
		},
		{
			"name":"Grid.003",
			"primitives":[
				{
					"attributes":{
						"POSITION":24,
						"TEXCOORD_0":25,
						"NORMAL":26
					},
					"indices":27,
					"material":2
				}
			]
		}
	],
	"textures":[
		{
			"sampler":0,
			"source":0
		},
		{
			"sampler":1,
			"source":0
		}
	],
	"images":[
		{
			"mimeType":"image/png",
			"name":"palette",
			"uri":"palette.png"
		}
	],
	"accessors":[
		{
			"bufferView":0,
			"componentType":5126,
			"count":4418,
			"max":[
				0.6537764668464661,
				6.652236461639404,
				0.5318828225135803
			],
			"min":[
				-0.6537764668464661,
				-0.4705445170402527,
				-0.5208508968353271
			],
			"type":"VEC3"
		},
		{
			"bufferView":1,
			"componentType":5126,
			"count":4418,
			"type":"VEC2"
		},
		{
			"bufferView":2,
			"componentType":5126,
			"count":4418,
			"type":"VEC3"
		},
		{
			"bufferView":3,
			"componentType":5123,
			"count":21852,
			"type":"SCALAR"
		},
		{
			"bufferView":4,
			"componentType":5126,
			"count":1190,
			"max":[
				0.9652817845344543,
				1.6679761409759521,
				0.2162766456604004
			],
			"min":[
				-0.5675457715988159,
				-0.014799535274505615,
				-0.5187764763832092
			],
			"type":"VEC3"
		},
		{
			"bufferView":5,
			"componentType":5126,
			"count":1190,
			"type":"VEC2"
		},
		{
			"bufferView":6,
			"componentType":5126,
			"count":1190,
			"type":"VEC3"
		},
		{
			"bufferView":7,
			"componentType":5123,
			"count":1752,
			"type":"SCALAR"
		},
		{
			"bufferView":8,
			"componentType":5126,
			"count":24,
			"max":[
				1,
				1,
				1
			],
			"min":[
				-1,
				-1,
				-1
			],
			"type":"VEC3"
		},
		{
			"bufferView":9,
			"componentType":5126,
			"count":24,
			"type":"VEC2"
		},
		{
			"bufferView":10,
			"componentType":5126,
			"count":24,
			"type":"VEC3"
		},
		{
			"bufferView":11,
			"componentType":5123,
			"count":36,
			"type":"SCALAR"
		},
		{
			"bufferView":12,
			"componentType":5126,
			"count":918,
			"max":[
				5.812478065490723,
				8.015279769897461,
				7.187520980834961
			],
			"min":[
				-13.42171573638916,
				-38.50127410888672,
				-10.910640716552734
			],
			"type":"VEC3"
		},
		{
			"bufferView":13,
			"componentType":5126,
			"count":918,
			"type":"VEC2"
		},
		{
			"bufferView":14,
			"componentType":5126,
			"count":918,
			"type":"VEC3"
		},
		{
			"bufferView":15,
			"componentType":5123,
			"count":2532,
			"type":"SCALAR"
		},
		{
			"bufferView":16,
			"componentType":5126,
			"count":24,
			"max":[
				1,
				1,
				1
			],
			"min":[
				-1,
				-1,
				-1
			],
			"type":"VEC3"
		},
		{
			"bufferView":17,
			"componentType":5126,
			"count":24,
			"type":"VEC2"
		},
		{
			"bufferView":18,
			"componentType":5126,
			"count":24,
			"type":"VEC3"
		},
		{
			"bufferView":19,
			"componentType":5123,
			"count":36,
			"type":"SCALAR"
		},
		{
			"bufferView":20,
			"componentType":5126,
			"count":289,
			"max":[
				160,
				0,
				160
			],
			"min":[
				-160,
				0,
				-160
			],
			"type":"VEC3"
		},
		{
			"bufferView":21,
			"componentType":5126,
			"count":289,
			"type":"VEC2"
		},
		{
			"bufferView":22,
			"componentType":5126,
			"count":289,
			"type":"VEC3"
		},
		{
			"bufferView":23,
			"componentType":5123,
			"count":1536,
			"type":"SCALAR"
		},
		{
			"bufferView":24,
			"componentType":5126,
			"count":4225,
			"max":[
				160,
				0,
				160
			],
			"min":[
				-160,
				0,
				-160
			],
			"type":"VEC3"
		},
		{
			"bufferView":25,
			"componentType":5126,
			"count":4225,
			"type":"VEC2"
		},
		{
			"bufferView":26,
			"componentType":5126,
			"count":4225,
			"type":"VEC3"
		},
		{
			"bufferView":27,
			"componentType":5123,
			"count":24576,
			"type":"SCALAR"
		}
	],
	"bufferViews":[
		{
			"buffer":0,
			"byteLength":53016,
			"byteOffset":0,
			"target":34962
		},
		{
			"buffer":0,
			"byteLength":35344,
			"byteOffset":53016,
			"target":34962
		},
		{
			"buffer":0,
			"byteLength":53016,
			"byteOffset":88360,
			"target":34962
		},
		{
			"buffer":0,
			"byteLength":43704,
			"byteOffset":141376,
			"target":34963
		},
		{
			"buffer":0,
			"byteLength":14280,
			"byteOffset":185080,
			"target":34962
		},
		{
			"buffer":0,
			"byteLength":9520,
			"byteOffset":199360,
			"target":34962
		},
		{
			"buffer":0,
			"byteLength":14280,
			"byteOffset":208880,
			"target":34962
		},
		{
			"buffer":0,
			"byteLength":3504,
			"byteOffset":223160,
			"target":34963
		},
		{
			"buffer":0,
			"byteLength":288,
			"byteOffset":226664,
			"target":34962
		},
		{
			"buffer":0,
			"byteLength":192,
			"byteOffset":226952,
			"target":34962
		},
		{
			"buffer":0,
			"byteLength":288,
			"byteOffset":227144,
			"target":34962
		},
		{
			"buffer":0,
			"byteLength":72,
			"byteOffset":227432,
			"target":34963
		},
		{
			"buffer":0,
			"byteLength":11016,
			"byteOffset":227504,
			"target":34962
		},
		{
			"buffer":0,
			"byteLength":7344,
			"byteOffset":238520,
			"target":34962
		},
		{
			"buffer":0,
			"byteLength":11016,
			"byteOffset":245864,
			"target":34962
		},
		{
			"buffer":0,
			"byteLength":5064,
			"byteOffset":256880,
			"target":34963
		},
		{
			"buffer":0,
			"byteLength":288,
			"byteOffset":261944,
			"target":34962
		},
		{
			"buffer":0,
			"byteLength":192,
			"byteOffset":262232,
			"target":34962
		},
		{
			"buffer":0,
			"byteLength":288,
			"byteOffset":262424,
			"target":34962
		},
		{
			"buffer":0,
			"byteLength":72,
			"byteOffset":262712,
			"target":34963
		},
		{
			"buffer":0,
			"byteLength":3468,
			"byteOffset":262784,
			"target":34962
		},
		{
			"buffer":0,
			"byteLength":2312,
			"byteOffset":266252,
			"target":34962
		},
		{
			"buffer":0,
			"byteLength":3468,
			"byteOffset":268564,
			"target":34962
		},
		{
			"buffer":0,
			"byteLength":3072,
			"byteOffset":272032,
			"target":34963
		},
		{
			"buffer":0,
			"byteLength":50700,
			"byteOffset":275104,
			"target":34962
		},
		{
			"buffer":0,
			"byteLength":33800,
			"byteOffset":325804,
			"target":34962
		},
		{
			"buffer":0,
			"byteLength":50700,
			"byteOffset":359604,
			"target":34962
		},
		{
			"buffer":0,
			"byteLength":49152,
			"byteOffset":410304,
			"target":34963
		}
	],
	"samplers":[
		{
			"magFilter":9728,
			"minFilter":9984
		},
		{
			"magFilter":9729,
			"minFilter":9987
		}
	],
	"buffers":[
		{
			"byteLength":459456,
			"uri":"duckfield.bin"
		}
	]
}
